<svg xmlns="http://www.w3.org/2000/svg" xmlns:xlink="http://www.w3.org/1999/xlink" viewBox="0 0 187 528"><defs><style>.cls-1{opacity:0.2;}.cls-2,.cls-3,.cls-4,.cls-5,.cls-6,.cls-7{stroke-linecap:round;stroke-linejoin:round;stroke-width:3px;}.cls-2{fill:url(#linear-gradient);stroke:url(#linear-gradient-2);}.cls-3{fill:url(#linear-gradient-3);stroke:url(#linear-gradient-3);}.cls-4{fill:url(#linear-gradient-5);stroke:url(#linear-gradient-5);}.cls-5{fill:url(#linear-gradient-7);stroke:url(#linear-gradient-8);}.cls-6{fill:url(#linear-gradient-9);stroke:url(#linear-gradient-9);}.cls-7{fill:url(#linear-gradient-11);stroke:url(#linear-gradient-11);}</style><linearGradient id="linear-gradient" x1="-4184.78" y1="3205.22" x2="-4185.98" y2="3204.22" gradientTransform="matrix(181, 0, 0, -521, 757617.93, 1669888.81)" gradientUnits="userSpaceOnUse"><stop offset="0" stop-color="#f5c756"/><stop offset="0.21" stop-color="#ad8520"/><stop offset="0.58" stop-color="#dab65c"/><stop offset="0.85" stop-color="#ae8928"/><stop offset="1" stop-color="#ffe062"/></linearGradient><linearGradient id="linear-gradient-2" x1="-4184.78" y1="3205.22" x2="-4185.98" y2="3204.22" gradientTransform="matrix(181, 0, 0, -521, 757617.93, 1669888.81)" gradientUnits="userSpaceOnUse"><stop offset="0" stop-color="#f5c756"/><stop offset="0.21" stop-color="#ad8520"/><stop offset="0.57" stop-color="#dab65c"/><stop offset="0.85" stop-color="#ae8928"/><stop offset="1" stop-color="#ffe062"/></linearGradient><linearGradient id="linear-gradient-3" x1="-4184.65" y1="3204.94" x2="-4186.35" y2="3204.33" gradientTransform="matrix(181, 0, 0, -521, 757617.93, 1669888.81)" gradientUnits="userSpaceOnUse"><stop offset="0" stop-color="#f5c756"/><stop offset="0.24" stop-color="#a38028"/><stop offset="0.51" stop-color="#f4ca5f"/><stop offset="0.64" stop-color="#dab65c"/><stop offset="0.83" stop-color="#ae8928"/><stop offset="1" stop-color="#ffe062"/></linearGradient><linearGradient id="linear-gradient-5" x1="-4027.25" y1="3104.77" x2="-4028.45" y2="3103.77" gradientTransform="matrix(23.2, 0, 0, -23.25, 93536.96, 72269.25)" xlink:href="#linear-gradient-2"/><linearGradient id="linear-gradient-7" x1="-4184.78" y1="3205.22" x2="-4185.98" y2="3204.22" gradientTransform="matrix(181, 0, 0, -521, 757620.93, 1669884.81)" xlink:href="#linear-gradient"/><linearGradient id="linear-gradient-8" x1="-4184.78" y1="3205.22" x2="-4185.98" y2="3204.22" gradientTransform="matrix(181, 0, 0, -521, 757620.93, 1669884.81)" xlink:href="#linear-gradient-2"/><linearGradient id="linear-gradient-9" x1="-4184.65" y1="3204.94" x2="-4186.35" y2="3204.33" gradientTransform="matrix(181, 0, 0, -521, 757620.93, 1669884.81)" xlink:href="#linear-gradient-3"/><linearGradient id="linear-gradient-11" x1="-4027.25" y1="3104.77" x2="-4028.45" y2="3103.77" gradientTransform="matrix(23.2, 0, 0, -23.25, 93539.96, 72265.25)" xlink:href="#linear-gradient-2"/></defs><title>golden-key</title><g id="Layer_2" data-name="Layer 2"><g id="Layer_1-2" data-name="Layer 1"><g id="Splash"><g id="MS-Splash-_1920_-stage-2" data-name="MS-Splash-(1920)-stage-2"><g id="logo"><g id="Group-5"><g id="Group-32" class="cls-1"><g id="Group-6"><g id="Group-4"><path id="Fill-2" class="cls-2" d="M153.26,153.69c9.09-10.38,14.07-20.48,14.07-30V110.6l-21.48.14L128.12,128.5ZM99.68,193.64a259.52,259.52,0,0,0,29.1-18.22c4.89-3.55,9.5-7.23,13.73-11l-25.12-25.18L99.49,157.2Zm-58.2-29.21c4.08,3.63,8.64,7.29,13.74,11A260.09,260.09,0,0,0,84.5,193.74L84.31,157l-17.7-17.74ZM30.73,153.7l25.15-25.2L38,110.6l-21.34.11v13C16.67,132.39,20.89,142.44,30.73,153.7ZM55.88,77.62,16.67,38.33V95.51l21.46-.11ZM84.5,48.94,84.35,20.7H20.53L66.61,66.87Zm32.89,17.93L163.47,20.7H99.53l.15,28.42Zm14.67,36.19L92,62.93,51.94,103.06,92,143.2Zm35.27-7.66V38.33L128.12,77.62,146,95.54ZM84.5,448.5V210.9C68,202.59,50.84,192,36.05,179.77c-21.88-18.15-34.55-37-34.55-56.09V5.5h181V123.68c0,19.1-12.67,37.94-34.55,56.09C133.16,192,116,202.59,99.5,210.9V526.5h-15v-63h-21v-15Zm-38,43h39v17h-39Z"/><path id="Fill-2-Copy" class="cls-3" d="M153.26,153.69c9.09-10.38,14.07-20.48,14.07-30V110.6l-21.48.14L128.12,128.5ZM99.68,193.64a259.52,259.52,0,0,0,29.1-18.22c4.89-3.55,9.5-7.23,13.73-11l-25.12-25.18L99.49,157.2Zm-58.2-29.21c4.08,3.63,8.64,7.29,13.74,11A260.09,260.09,0,0,0,84.5,193.74L84.31,157l-17.7-17.74ZM30.73,153.7l25.15-25.2L38,110.6l-21.34.11v13C16.67,132.39,20.89,142.44,30.73,153.7ZM55.88,77.62,16.67,38.33V95.51l21.46-.11ZM84.5,48.94,84.35,20.7H20.53L66.61,66.87Zm32.89,17.93L163.47,20.7H99.53l.15,28.42Zm14.67,36.19L92,62.93,51.94,103.06,92,143.2Zm35.27-7.66V38.33L128.12,77.62,146,95.54ZM84.5,448.5V210.9C68,202.59,50.84,192,36.05,179.77c-21.88-18.15-34.55-37-34.55-56.09V5.5h181V123.68c0,19.1-12.67,37.94-34.55,56.09C133.16,192,116,202.59,99.5,210.9V526.5h-15v-63h-21v-15Zm-38,43h39v17h-39Z"/></g><path id="Fill-5" class="cls-4" d="M92,115.12,80.44,103.5,92,91.88l11.6,11.62Z"/></g></g><g id="Group-32-Copy"><g id="Group-6-2" data-name="Group-6"><g id="Group-4-2" data-name="Group-4"><path id="Fill-2-2" data-name="Fill-2" class="cls-5" d="M156.26,149.69c9.09-10.38,14.07-20.48,14.07-30V106.6l-21.48.14L131.12,124.5Zm-53.58,39.95a259.52,259.52,0,0,0,29.1-18.22c4.89-3.55,9.5-7.23,13.73-11l-25.12-25.18-17.9,17.95Zm-58.2-29.21c4.08,3.63,8.64,7.29,13.74,11A260.09,260.09,0,0,0,87.5,189.74L87.31,153l-17.7-17.74ZM33.73,149.7l25.15-25.2L41,106.6l-21.34.11v13C19.67,128.39,23.89,138.44,33.73,149.7ZM58.88,73.62,19.67,34.33V91.51l21.46-.11ZM87.5,44.94,87.35,16.7H23.53L69.61,62.87Zm32.89,17.93L166.47,16.7H102.53l.15,28.42Zm14.67,36.19L95,58.93,54.94,99.06,95,139.2Zm35.27-7.66V34.33L131.12,73.62,149,91.54ZM87.5,444.5V206.9C71,198.59,53.84,188,39.05,175.77c-21.88-18.15-34.55-37-34.55-56.09V1.5h181V119.68c0,19.1-12.67,37.94-34.55,56.09C136.16,188,119,198.59,102.5,206.9V522.5h-15v-63h-21v-15Zm-38,43h39v17h-39Z"/><path id="Fill-2-Copy-2" data-name="Fill-2-Copy" class="cls-6" d="M156.26,149.69c9.09-10.38,14.07-20.48,14.07-30V106.6l-21.48.14L131.12,124.5Zm-53.58,39.95a259.52,259.52,0,0,0,29.1-18.22c4.89-3.55,9.5-7.23,13.73-11l-25.12-25.18-17.9,17.95Zm-58.2-29.21c4.08,3.63,8.64,7.29,13.74,11A260.09,260.09,0,0,0,87.5,189.74L87.31,153l-17.7-17.74ZM33.73,149.7l25.15-25.2L41,106.6l-21.34.11v13C19.67,128.39,23.89,138.44,33.73,149.7ZM58.88,73.62,19.67,34.33V91.51l21.46-.11ZM87.5,44.94,87.35,16.7H23.53L69.61,62.87Zm32.89,17.93L166.47,16.7H102.53l.15,28.42Zm14.67,36.19L95,58.93,54.94,99.06,95,139.2Zm35.27-7.66V34.33L131.12,73.62,149,91.54ZM87.5,444.5V206.9C71,198.59,53.84,188,39.05,175.77c-21.88-18.15-34.55-37-34.55-56.09V1.5h181V119.68c0,19.1-12.67,37.94-34.55,56.09C136.16,188,119,198.59,102.5,206.9V522.5h-15v-63h-21v-15Zm-38,43h39v17h-39Z"/></g><path id="Fill-5-2" data-name="Fill-5" class="cls-7" d="M95,111.12,83.44,99.5,95,87.88l11.6,11.62Z"/></g></g></g></g></g></g></g></g></svg>