<?xml version="1.0" encoding="UTF-8"?>
<svg width="144px" height="111px" viewBox="0 0 144 111" version="1.1" xmlns="http://www.w3.org/2000/svg" xmlns:xlink="http://www.w3.org/1999/xlink">
    <!-- Generator: Sketch 50 (54983) - http://www.bohemiancoding.com/sketch -->
    <title>logo</title>
    <desc>Created with Sketch.</desc>
    <defs>
        <polygon id="path-1" points="0.855685646 0.0169791883 54.2725838 0.0169791883 54.2725838 61.6849639 0.855685646 61.6849639"></polygon>
        <polygon id="path-3" points="0 110.942248 143.963336 110.942248 143.963336 0.0169791883 0 0.0169791883"></polygon>
        <polygon id="path-5" points="0.0199082598 0.0450237253 6.58645838 0.0450237253 6.58645838 8.20083247 0.0199082598 8.20083247"></polygon>
    </defs>
    <g id="Symbols" stroke="none" stroke-width="1" fill="none" fill-rule="evenodd">
        <g id="Header-1920" transform="translate(-26.000000, -26.000000)">
            <g id="menu">
                <g id="Group-3">
                    <g id="logo" transform="translate(26.000000, 26.000000)">
                        <g id="Group-2" transform="translate(45.000000, 0.000000)">
                            <polygon id="Fill-1" fill="#F9C314" points="27.0000284 45 12 29.5 27.0000284 14 42 29.5"></polygon>
                            <mask id="mask-2" fill="white">
                                <use xlink:href="#path-1"></use>
                            </mask>
                            <g id="Clip-3"></g>
                            <path d="M45.9659086,44.6155086 L37.7673777,36.4150227 L43.5351147,30.6457948 L50.6190601,30.5987266 L50.6190601,34.9701746 C50.6190601,38.3360388 48.6420337,41.658531 45.9659086,44.6155086 Z M29.4221909,56.6768541 L29.3598332,44.8247454 L35.1840385,38.9990357 L43.3765068,47.1935154 C41.8988035,48.533543 40.3445966,49.760376 38.8679904,50.8334722 C35.39617,53.3565565 31.8871083,55.3701496 29.4221909,56.6768541 Z M11.7491644,47.196172 L19.944231,38.9990934 L25.7057899,44.7621996 L25.7686672,56.7099462 C23.3005164,55.4041658 19.7616038,53.3779826 16.2602791,50.8334722 C14.5196343,49.5685227 13.0292863,48.3556658 11.7491644,47.196172 Z M4.5092093,34.9701746 L4.5092093,30.6383447 L11.5487538,30.6013832 L17.3608917,36.4150804 L9.15930072,44.6186273 C5.46229992,40.524737 4.5092093,37.2519696 4.5092093,34.9701746 Z M17.3607763,21.171581 L11.58715,26.9466996 L4.5092093,26.9838921 L4.5092093,8.31694932 L17.3607763,21.171581 Z M25.7652029,12.7650347 L19.9441155,18.5875102 L5.03151243,3.67135099 L25.7168757,3.67135099 L25.7652029,12.7650347 Z M35.184154,18.5876257 L29.419073,12.8211122 L29.3705148,3.67135099 L50.0968148,3.67135099 L35.184154,18.5876257 Z M40.2204587,28.7932729 L27.5640481,41.4524707 L14.9078685,28.7932729 L27.5640481,16.1340175 L40.2204587,28.7932729 Z M50.6190601,26.9442162 L43.5853472,26.9909379 L37.7674932,21.1716387 L50.6190601,8.31694932 L50.6190601,26.9442162 Z M0.855685646,34.9701746 C0.855685646,49.7243385 27.5641059,61.6849639 27.5641059,61.6849639 C27.5641059,61.6849639 54.2725838,49.7243385 54.2725838,34.9701746 L54.2725838,0.0169560874 L0.855685646,0.0169560874 L0.855685646,34.9701746 Z" id="Fill-2" fill="#2A2C30" mask="url(#mask-2)"></path>
                            <polygon id="Fill-5" fill="#2A2C30" mask="url(#mask-2)" points="27.5641636 31.7003872 24.6577771 28.7933653 27.5641636 25.8862857 30.4704924 28.7933653"></polygon>
                        </g>
                        <g id="Group-32">
                            <g id="Group-4" transform="translate(45.844427, 0.000000)"></g>
                            <g id="Group">
                                <polygon id="Fill-10" fill="#2A2C30" points="62.138067 104.351279 62.138067 110.86222 60.5621504 110.86222 60.5621504 104.351279 58.3694704 104.351279 58.3694704 102.866409 64.3307471 102.866409 64.3307471 104.351279"></polygon>
                                <path d="M72.8496404,105.721938 L71.9817142,107.903706 L73.7060767,107.903706 L72.8496404,105.721938 Z M71.4335442,109.400127 L70.8625674,110.862243 L69.115225,110.862243 L72.4041296,102.866432 L73.329217,102.866432 L76.5725081,110.862243 L74.8252234,110.862243 L74.2542467,109.400127 L71.4335442,109.400127 Z" id="Fill-12" fill="#2A2C30"></path>
                                <polygon id="Fill-14" fill="#2A2C30" points="85.2058104 104.351279 85.2058104 110.86222 83.6298938 110.86222 83.6298938 104.351279 81.4372138 104.351279 81.4372138 102.866409 87.3984905 102.866409 87.3984905 104.351279"></polygon>
                                <polygon id="Fill-16" fill="#2A2C30" points="95.460383 106.099021 98.9207134 106.099021 98.9207134 107.583891 95.460383 107.583891 95.460383 109.37739 99.2061729 109.37739 99.2061729 110.862261 93.8845241 110.862261 93.8845241 102.866391 99.2061729 102.866391 99.2061729 104.351262 95.460383 104.351262"></polygon>
                                <polygon id="Fill-18" fill="#2A2C30" points="18.9941023 94.5537387 15.2333004 94.5537387 15.2333004 81.8404271 9.48346239 87.536887 3.76053055 81.8404271 3.76053055 94.5537387 1.73215718e-05 94.5537387 1.73215718e-05 75.4735202 2.23461556 75.4735202 9.48346239 82.7235181 16.7595041 75.4735202 18.9941023 75.4735202"></polygon>
                                <mask id="mask-4" fill="white">
                                    <use xlink:href="#path-3"></use>
                                </mask>
                                <g id="Clip-21"></g>
                                <polygon id="Fill-20" fill="#2A2C30" mask="url(#mask-4)" points="23.7358075 94.5537503 27.1966576 94.5537503 27.1966576 80.9247752 23.7358075 80.9247752"></polygon>
                                <polygon id="Fill-22" fill="#2A2C30" mask="url(#mask-4)" points="31.5838653 94.5536925 35.0719102 94.5536925 35.0719102 75.473474 31.5838653 75.473474"></polygon>
                                <polygon id="Fill-23" fill="#2A2C30" mask="url(#mask-4)" points="39.050733 94.5536925 42.5387779 94.5536925 42.5387779 75.473474 39.050733 75.473474"></polygon>
                                <path d="M52.4308273,83.8961505 C51.540614,83.8961505 50.800059,84.15979 50.2100285,84.6866646 C49.6193052,85.2139434 49.3060157,85.8223644 49.2698714,86.5125048 L55.5103718,86.5125048 C55.5103718,86.1132629 55.4013036,85.7496542 55.183225,85.4222561 C54.6381729,84.4047176 53.7205915,83.8961505 52.4308273,83.8961505 M52.4308273,80.7342676 C55.3194303,80.7342676 57.3179355,81.9605808 58.4262274,84.4140735 C58.6986957,85.0136583 58.8528,85.7358514 58.8895795,86.5807681 C58.9256661,87.4256849 58.8438505,88.1304944 58.6442483,88.6934643 L49.1334351,88.6934643 C49.1334351,89.5838321 49.4559051,90.2837327 50.1009604,90.7922998 C50.7456115,91.3012712 51.5495057,91.5555548 52.5126428,91.5555548 C54.0204856,91.5555548 55.39195,91.2375126 56.6275554,90.6013706 L58.4534223,92.5914008 C56.5459131,94.0086432 54.5655378,94.7174955 52.5126428,94.7174955 C50.4595169,94.7174955 48.7882162,94.059061 47.4983942,92.7413259 C46.2082258,91.4239372 45.5635169,89.7564539 45.5635169,87.7392223 C45.5635169,85.7407603 46.1903269,84.073277 47.4440045,82.7376386 C48.6974512,81.4020579 50.3598601,80.7342676 52.4308273,80.7342676" id="Fill-24" fill="#2A2C30" mask="url(#mask-4)"></path>
                                <path d="M69.1628882,80.7342676 C71.0881809,80.7342676 72.5597062,81.3293477 73.577464,82.519508 C74.5947599,83.709726 75.1036677,85.3228066 75.1036677,87.3578259 L75.1036677,94.5537676 L71.6425289,94.5537676 L71.6425289,87.5759565 C71.6425289,85.2500387 70.6343557,84.0866177 68.6176629,84.0866177 C67.5822948,84.0866177 66.7826156,84.4002707 66.219549,85.0269991 C65.6563092,85.6542473 65.3748914,86.6039268 65.3748914,87.8757489 L65.3748914,94.5537676 L61.9140414,94.5537676 L61.9140414,80.9247348 L64.2302242,80.9247348 L64.4755554,83.0508295 C65.4199275,81.5064741 66.982622,80.7342676 69.1628882,80.7342676" id="Fill-25" fill="#2A2C30" mask="url(#mask-4)"></path>
                                <path d="M86.313727,80.7342676 C88.2390775,80.7342676 89.7106027,81.3293477 90.7283605,82.519508 C91.7456565,83.709726 92.2545065,85.3228066 92.2545065,87.3578259 L92.2545065,94.5537676 L88.7934255,94.5537676 L88.7934255,87.5759565 C88.7934255,85.2500387 87.7852523,84.0866177 85.7685594,84.0866177 C84.7331913,84.0866177 83.9335121,84.4002707 83.3704455,85.0269991 C82.8072058,85.6542473 82.525788,86.6039268 82.525788,87.8757489 L82.525788,94.5537676 L79.0648802,94.5537676 L79.0648802,80.9247348 L81.3811208,80.9247348 L81.6263942,83.0508295 C82.5708241,81.5064741 84.1335185,80.7342676 86.313727,80.7342676" id="Fill-26" fill="#2A2C30" mask="url(#mask-4)"></path>
                                <polygon id="Fill-27" fill="#2A2C30" mask="url(#mask-4)" points="96.4375621 94.5537503 99.8983545 94.5537503 99.8983545 80.9247752 96.4375621 80.9247752"></polygon>
                                <path d="M117.202847,94.5537387 L114.886433,94.5537387 L114.641102,92.4277018 C113.696326,93.9725191 112.142927,94.7447257 109.981253,94.7447257 C108.05521,94.7447257 106.579008,94.1495878 105.55282,92.9589656 C104.526113,91.7692673 104.013221,90.1561289 104.013221,88.1211097 L104.013221,80.9247637 L107.474129,80.9247637 L107.474129,87.9029791 C107.474129,90.2293589 108.491425,91.3918558 110.52619,91.3918558 C111.543485,91.3918558 112.333811,91.0782606 112.897109,90.4515322 C113.459944,89.824746 113.741824,88.8750087 113.741824,87.6031867 L113.741824,80.9247637 L117.202847,80.9247637 L117.202847,94.5537387 Z" id="Fill-28" fill="#2A2C30" mask="url(#mask-4)"></path>
                                <path d="M138.022395,80.7342676 C139.947976,80.7342676 141.419444,81.3293477 142.437202,82.519508 C143.454498,83.709726 143.963405,85.3228066 143.963405,87.3578259 L143.963405,94.5537676 L140.502267,94.5537676 L140.502267,87.5759565 C140.502267,85.2500387 139.494151,84.0866177 137.4774,84.0866177 C136.441801,84.0866177 135.642122,84.4002707 135.079287,85.0269991 C134.515989,85.6542473 134.234629,86.6039268 134.234629,87.8757489 L134.234629,94.5537676 L130.773548,94.5537676 L130.773548,87.5759565 C130.773548,85.2500387 129.765375,84.0866177 127.748624,84.0866177 C126.713314,84.0866177 125.913635,84.4002707 125.350568,85.0269991 C124.787271,85.6542473 124.505853,86.6039268 124.505853,87.8757489 L124.505853,94.5537676 L121.04506,94.5537676 L121.04506,80.9247348 L123.361243,80.9247348 L123.606517,83.0508295 C124.550947,81.5064741 126.113641,80.7342676 128.29385,80.7342676 C130.618982,80.7342676 132.235951,81.6157416 133.144409,83.3782275 C133.580566,82.5240126 134.225218,81.8700251 135.079287,81.4154565 C135.933125,80.9613498 136.914103,80.7342676 138.022395,80.7342676" id="Fill-29" fill="#2A2C30" mask="url(#mask-4)"></path>
                                <polygon id="Fill-30" fill="#2A2C30" mask="url(#mask-4)" points="23.7358653 78.5981067 27.1967153 78.5981067 27.1967153 75.473474 23.7358653 75.473474"></polygon>
                                <polygon id="Fill-31" fill="#2A2C30" mask="url(#mask-4)" points="96.4375621 78.5981067 99.8983545 78.5981067 99.8983545 75.473474 96.4375621 75.473474"></polygon>
                                <g id="Group-9" mask="url(#mask-4)">
                                    <g transform="translate(45.902165, 102.741415)">
                                        <mask id="mask-6" fill="white">
                                            <use xlink:href="#path-5"></use>
                                        </mask>
                                        <g id="Clip-8" stroke="none" fill="none"></g>
                                        <path d="M3.16048244,0.0450237253 L3.25176712,0.0450237253 C3.79993713,0.0450237253 4.34418091,0.164802081 4.88484491,0.404820812 C5.42539342,0.644724037 5.90878075,0.966404579 6.33512237,1.37003569 L5.30743352,2.31798262 C5.01799006,2.08206431 4.67733248,1.8918281 4.28528757,1.74692747 C3.89306945,1.60243111 3.54877434,1.52989417 3.25176712,1.52989417 L3.16048244,1.52989417 C2.82531002,1.52989417 2.51126993,1.60035203 2.21836215,1.74132549 C1.92510794,1.88224121 1.77862518,2.10880364 1.77862518,2.42083954 C1.77862518,2.66478543 1.89462197,2.84352893 2.12696199,2.95776306 C2.35901331,3.07193944 2.68823865,3.15585359 3.11475349,3.209159 L3.75432366,3.27759553 C4.64505662,3.38432185 5.33965164,3.6260154 5.83839743,4.00290718 C6.33697001,4.37997222 6.58645838,4.9566871 6.58645838,5.73339834 C6.58645838,6.47984735 6.29528276,7.0756205 5.71281604,7.52112206 C5.13040706,7.96656587 4.38615686,8.19318606 3.48023865,8.20086712 L3.41164523,8.20086712 C2.65798364,8.20086712 1.98994836,8.05053777 1.40748164,7.74953257 C0.825130393,7.44875838 0.362528949,7.06239521 0.0199082598,6.59015432 L1.04777033,5.64220739 C1.25331965,5.93160437 1.56170136,6.1827693 1.97274226,6.39593319 C2.38389864,6.60921259 2.86347522,6.71576566 3.41164523,6.71576566 L3.48023865,6.71576566 C3.94445678,6.70831561 4.31565806,6.61689365 4.59366929,6.4417308 C4.8715073,6.26656795 5.0104263,6.03047638 5.0104263,5.73339834 C5.0104263,5.41356587 4.88484491,5.18348054 4.63368212,5.04244932 C4.38234611,4.90153361 4.01691868,4.80075578 3.53728436,4.7396538 L2.90914643,4.67121727 C1.10487378,4.45811113 0.202593103,3.72696649 0.202593103,2.47801436 C0.202593103,1.74692747 0.482394226,1.16258928 1.04199647,0.724768783 C1.60165646,0.286890531 2.30762598,0.0603858481 3.16048244,0.0450237253" id="Fill-7" stroke="none" fill="#312526" fill-rule="evenodd" mask="url(#mask-6)"></path>
                                    </g>
                                </g>
                            </g>
                        </g>
                    </g>
                </g>
            </g>
        </g>
    </g>
</svg>