<?xml version="1.0" encoding="UTF-8"?>
<svg width="76px" height="76px" viewBox="0 0 76 76" version="1.1" xmlns="http://www.w3.org/2000/svg" xmlns:xlink="http://www.w3.org/1999/xlink">
    <!-- Generator: Sketch 50.2 (55047) - http://www.bohemiancoding.com/sketch -->
    <title>Group 26</title>
    <desc>Created with Sketch.</desc>
    <defs></defs>
    <g id="Concept" stroke="none" stroke-width="1" fill="none" fill-rule="evenodd">
        <g id="MS-Concept-(1920)" transform="translate(-1046.000000, -7380.000000)">
            <g id="Group-25" transform="translate(-227.000000, 6477.000000)">
                <g id="Group-Copy-2" transform="translate(1273.000000, 903.000000)">
                    <g id="Group-26">
                        <rect id="Rectangle-4-Copy" fill="#FCC334" x="0" y="0" width="75.8602574" height="75.8602574" rx="37.9301287"></rect>
                        <path d="M49.7583036,34.1935077 C49.6087284,34.044094 49.4060624,33.9602155 49.1945883,33.9602155 L42.0336428,33.9611852 L42.0346933,26.797169 C42.0346933,26.585695 41.9508148,26.3829482 41.8013204,26.2333729 C41.6517451,26.0838785 41.4489983,26 41.2375243,26 L34.7577078,26.0009697 C34.3177093,26.0011313 33.9610236,26.3577362 33.9609428,26.7977347 L33.9596499,33.9623165 L26.7979771,33.9634479 C26.3578978,33.9634479 26.0012121,34.3202143 26.0011313,34.7602128 L26,41.2427768 C26,41.4543317 26.0838785,41.6569976 26.2334538,41.8065729 C26.3829482,41.9560673 26.585695,42.0399458 26.797169,42.0399458 L33.9584378,42.0389761 L33.9573065,49.2028307 C33.9573065,49.4143048 34.0413466,49.6170516 34.1907602,49.7666268 C34.3403355,49.9161213 34.5430823,50.0001614 34.7545563,49.9999998 L41.234292,49.9987068 C41.6742905,49.9987068 42.0309762,49.6419404 42.031057,49.2019419 L42.0321883,42.0376832 L49.1941035,42.0363903 C49.634102,42.0363903 49.9907877,41.6796238 49.9908685,41.2396253 L49.9918382,34.757223 C49.9916766,34.5457489 49.9077981,34.3430829 49.7583036,34.1935077 Z" id="Shape" fill="#2A2C30" fill-rule="nonzero"></path>
                    </g>
                </g>
            </g>
        </g>
    </g>
</svg>