<?xml version="1.0" encoding="UTF-8"?>
<svg width="76px" height="76px" viewBox="0 0 76 76" version="1.1" xmlns="http://www.w3.org/2000/svg" xmlns:xlink="http://www.w3.org/1999/xlink">
    <!-- Generator: Sketch 50.2 (55047) - http://www.bohemiancoding.com/sketch -->
    <title>Group 30</title>
    <desc>Created with Sketch.</desc>
    <defs></defs>
    <g id="Concept" stroke="none" stroke-width="1" fill="none" fill-rule="evenodd">
        <g id="MS-Concept-(1920)" transform="translate(-1512.000000, -7380.000000)">
            <g id="Group-25" transform="translate(-227.000000, 6477.000000)">
                <g id="Group-Copy-6" transform="translate(1739.000000, 903.000000)">
                    <g id="Group-30">
                        <rect id="Rectangle-4-Copy" fill="#FCC334" x="0" y="0" width="75.8602574" height="75.8602574" rx="37.9301287"></rect>
                        <path d="M52.6752857,28.9959107 L50.8627143,27.1833393 L51.2371429,26.8089107 C51.5161429,26.5300536 51.5161429,26.0777679 51.2371429,25.7989107 L50.0855714,24.6473393 C49.8065714,24.3683393 49.3544286,24.3683393 49.0754286,24.6473393 L48.7011429,25.021625 L46.8885714,23.2091964 C46.6095714,22.9303393 46.1574286,22.9301964 45.8784286,23.2091964 L44.1165714,24.9709107 L43.2922857,24.146625 C43.0132857,23.867625 42.5611429,23.867625 42.2821429,24.146625 L40.0151429,26.4134821 C39.8811429,26.5474821 39.806,26.7290536 39.806,26.9184821 C39.806,27.1079107 39.8812857,27.289625 40.0151429,27.4234821 L43.1571429,30.565625 L30.5657143,43.1570536 L27.4238571,40.0151964 C27.145,39.7363393 26.6928571,39.7361964 26.4137143,40.0151964 L24.1467143,42.2819107 C24.0128571,42.4159107 23.9375714,42.5974821 23.9375714,42.7869107 C23.9375714,42.9763393 24.0128571,43.1580536 24.1467143,43.2919107 L24.9711429,44.1163393 L23.2091429,45.8783393 C23.0752857,46.0123393 23,46.1939107 23,46.3833393 C23,46.5727679 23.0752857,46.7544821 23.2091429,46.8883393 L25.0217143,48.7009107 L24.6472857,49.0753393 C24.3682857,49.3541964 24.3682857,49.8064821 24.6472857,50.0853393 L25.7988571,51.2369107 C25.9382857,51.3764821 26.1211429,51.4461964 26.304,51.4461964 C26.4868571,51.4461964 26.6695714,51.3764821 26.8091429,51.2369107 L27.1834286,50.862625 L28.996,52.6751964 C29.1355714,52.8147679 29.3182857,52.8844821 29.5011429,52.8844821 C29.684,52.8844821 29.8667143,52.8147679 30.0062857,52.6751964 L31.7681429,50.9133393 L32.5924286,51.737625 C32.732,51.8771964 32.9147143,51.9469107 33.0975714,51.9469107 C33.2804286,51.9469107 33.4631429,51.8771964 33.6027143,51.737625 L35.8695714,49.4707679 C36.1485714,49.1919107 36.1485714,48.739625 35.8695714,48.4607679 L32.7275714,45.3187679 L45.319,32.7273393 L48.461,35.8693393 C48.595,36.0033393 48.7767143,36.078625 48.9661429,36.078625 C49.1555714,36.078625 49.3372857,36.0034821 49.4712857,35.8693393 L51.7381429,33.6024821 C52.0171429,33.323625 52.0171429,32.8713393 51.7381429,32.5924821 L50.9137143,31.7680536 L52.6755714,30.0061964 C52.9542857,29.7270536 52.9542857,29.2747679 52.6752857,28.9959107 Z" id="Shape" fill="#2A2C30" fill-rule="nonzero"></path>
                    </g>
                </g>
            </g>
        </g>
    </g>
</svg>