<svg class="plan_color" id="sectionA" data-section="a" xmlns="http://www.w3.org/2000/svg" viewBox="0 0 680.56 339.44">
  <defs>
    <style>.cls-1{fill:none;}.cls-2{fill:#fea304;}.cls-3{fill:#fff1bc;}.cls-4{fill:#ffd100;}.cls-5{fill:#ffe986;}.cls-6{fill:#eb400d;}.cls-7{fill:#fc591b;}</style>
  </defs>
  
    <path class="cls-2" d="M11,189H39.39V142.64H11Zm57.12,88V191.2H8.55V277ZM101,172H68.07v17H41.55V142.64H101ZM63.27,57.44H40.83V66.8H68.07v66.6H11V66.8h2.4V57.44H8.55V33.68H63.27Z" transform="translate(1)"/>
    
    <path class="cls-3" d="M669.75,276.42v-85.8h-59.4v85.8Zm-32.88-88H610.35v-17H577.47V142.14h59.4Zm2.16,0h26V142.14H639ZM668.55,33.18h1.2V56.94h-4.68v76H610.35V66.3h27.24V56.94H615.15V33.18Z" transform="translate(1)"/>
    
    <path class="cls-4" d="M547.35,29.58H524.07v9.24h23.28v49.8H482.79V38.82h4.8V29.58h-7.2V5.7h67Zm2.16,9.24h56.28V132.9h-49V110.34h-7.32Zm-66.72,52h31.08V132.9H482.79Zm64.56,0V112.5h7.32v20.4H516V90.78Z" transform="translate(1)"/>
    <path class="cls-2" d="M440,132.9H471V90.78H440ZM473.43,5.7V29.58h-7.08v9.24H471v49.8H420.39V38.82h9.36V29.58H406.47V5.7ZM402,132.9H357.87V38.82h60.36v49.8L402,106Zm35.76-42.12V132.9H404.31V107l16.08-16.2Z" transform="translate(1)"/>
    <path class="cls-5" d="M240.51,90.78h33.84L290.43,107v25.9H240.51Zm36-52h76.8V132.9h-60.6V106l-16.2-16.2ZM207.13,132.9h31.1V90.78h-31.1ZM270.51,5.7h1.2V29.58H248.55v9.24h25.8v49.8h-67.2V38.82H212V29.58h-7.2V5.7Z" transform="translate(1)"/>
    <path class="cls-5" d="M240.51,90.78h33.84L290.43,107v25.9H240.51Zm36-52h76.8V132.9h-60.6V106l-16.2-16.2ZM207.13,132.9h31.1V90.78h-31.1ZM270.51,5.7h1.2V29.58H248.55v9.24h25.8v49.8h-67.2V38.82H212V29.58h-7.2V5.7Z" transform="translate(1)"/>
    
    <path class="cls-4" d="M162.15,132.9H123.63V112.5H131V90.78h31.2Zm33.36,0H164.43V90.78h31.08ZM132.15,5.7h65.76V29.58h-7.2v9.24h4.8v49.8H131V38.82h23.16V29.58H131V5.7Zm-3.36,33.12v71.52h-7.32V132.9h-49V38.82Z" transform="translate(1)"/>
    <path class="cls-6" d="M510.87,205.62h30.84v70.8h-5.64v9.36h5.64v23.76H492V285.78h7.44v-9.36h-10V227.58h-.6ZM419.79,176h41.64v49.44H419.79Zm67.56,100.44H461.07v9.36h26.4v23.76H419.55V285.78h5v-9.36h-4.8V227.58h67.56Zm118.44,0V176H544V276.42ZM488,225.44H463.59V176h78.12v27.48h-31.8Z" transform="translate(1)"/>
    <path class="cls-7" d="M216.51,225.42h42.23V176H216.51ZM214.71,176v49.44H190.23l-22-22h-31.8V176Zm-80.4,100.44V176H72.51V276.42Zm2.16-70.8h31l22,22h-.72v48.84h-10v9.36h7.56V309.6h-49.8V285.78h5.76v-9.36h-5.76Zm58.68,103.92h-4.32V285.78h26.28v-9.36H191V227.58h67.56v48.84h-4.8v9.36h4.92v23.76Z" transform="translate(1)"/>
    
</svg>