<svg class="plan_color" id="sectionV" data-section="v" xmlns="http://www.w3.org/2000/svg" width="635.58" height="334.06" viewBox="0 0 635.58 334.06">
  
      <path d="M515.54,192.33H495.11v37.8h20.43ZM618.28,295H597.73V276h-2.16V241.15h2.16v-.23h20.55Zm-107-238.1h4.43V48H509V25.34h63.69V48H550.51v8.9H572v56.93l-60.76,0Zm62.78,0v96.5h49.27V56.9Zm-2,59v37.5h-1.7v8.86H572v67.89H517.58V190.29H495.11V162.45l52.45-.08v-8.86h-1.67l0-37.58ZM495,232.19v65h91.65v-65Zm48.7-116.26H511.2v37.58h32.5ZM574,162.25v67.89h49.27V162.36Z" transform="translate(1)" style="fill: #fff1bc"/>
    
      <path d="M8.08,297V206.41H70.75v90.84H63.82v8.85h6.81v22.48H8.08v-22.7H29V297ZM12.62,56.9h2.27V48.38H8.08v-23h63.8V48H49.75v8.9h20v56.88H12.62ZM42,204.37V115.89H69.71l-.19,37.58H62.91v8.74h66.3v28.06H70.74v14Zm87.07-50.86H71.59l.06-96.61H129.1ZM40,179.62H8.08V115.89H40ZM8.1,181.78v22.59H40V181.78Z" transform="translate(1)" style="fill: #fea304"/>
    
      <path d="M424.83,153.4V131.6l18.28-18.28h25.2V153.4Zm19.53-42.12V56.9h16.12V48H438.57V25.34h63.69V48h-6.93v8.9H500v54.38ZM500,153.05H470.41V113.48H500Zm-57.8-41.77-19.53,19.41V153.4h-29.4V135.12h-10.1V56.9h59Z" transform="translate(1)" style="fill: #ffd100"/>
    
      <path d="M333.33,297H282.59V242.4l13.74-13.85V194.49h37Zm-39.05-69.25-13.74,13.74H259.65v-47h34.63ZM257.5,241.49H222v-47h35.5Zm-35.76,87.07h-2v-22.7h6.81V297H222V243.53h58.58V297h-19.3v8.85h20.89v22.7Z" transform="translate(1)" style="fill: #fc591b"/>
    
      <path d="M133.53,56.9h59.15v54.38l-19.53,19.41V153.4H133.53Zm41.78,96.5V131.6l18.28-18.28h25.2V153.4Zm74.25-40.07H220.94V153.4h28.61ZM189,48V25.34h60.51V48h-3.63v8.9h3.41v54.38H194.72V56.9h16.46V48Z" transform="translate(1)" style="fill: #ffe986"/>
    
      <path d="M78.92,194.6l52.45-.11v45.75h22.71V297l-75.15.23Zm54.61-.11V238.2h45.52V194.49Zm48.13.11h29.18v43.6H181.66Zm-29.06,134h-2V305.9h21V297H156.23V240.24h54.61V297h-4.43v8.85h4.43v22.7Z" transform="translate(1)" style="fill: #ff8019"/>
    
      <path d="M337.65,194.49V297h48V194.49Zm50.06,0v35.87h55.85V194.49Zm96.14.11H445.72v35.76h38.13ZM428.47,306.09h-4.58V297H484V232.4H387.71V297h4.88v9.08h-5.83v2h1.17v20.43h40.53Z" transform="translate(1)" style="fill: #eb400d"/>
    
</svg>
