<svg class="plan_color" id="sectionA" data-section="a" xmlns="http://www.w3.org/2000/svg" viewBox="0 0 678.41 340.38">
      <a data-key="k1" href="#">
            <path data-key="k1" d="M69.18,276.86v-85.8H9.66v85.8Zm32.88-105H69.18v17H42.66V142.58h59.4Zm-89.7,17H40.21V142.67H12.36Zm52-131.52H41.94V66.7H69.18v66.6H12.06v-76H9.38V33.62h55Z" transform="translate(1)" style="fill: #fc591b"/>
      </a>
      <a href="#">
            <path data-key="k2" d="M638.1,188.9H611.58v-17H578.7V142.58h59.4Zm2,0h26V142.58h-26ZM669.66,57.38H671V33.62H616.26V57.38h22.56v9.36H611.58v66.6h54.6v-76ZM671,276.86v-85.8H611.6v85.8Z" transform="translate(1)" style="fill: #fff1bc"/>
      </a>
      <a href="#">
            <path data-key="k3" d="M483.7,132.4h31V91h-31Zm64.44-42.12v21.84h7.32V132.4H516.82V90.28Zm2.16-52h56.26v94.08h-49V109.84h-7.32Zm-2.16-9.22H524.86V38.3h23.28V88.1H483.56V38.32h4.68V29.06h-7.08V5.32h67Z" transform="translate(1)" style="fill: #fea304"/>
      </a>
      <a href="#">
            <path data-key="k4" d="M439,91.22v42.12H405.54V107.42l16.08-16.2Zm-35.76,42.12H359.1V39.26h60.36v49.8l-16.2,17.4Zm37.92,0h31.08V91.22H441.18ZM474.66,6.26V30h-7.08v9.24h4.68V89H421.62V39.26H431V30H407.7V6.26Z" transform="translate(1)" style="fill: #ffe986"/>
      </a>
      <a href="#">
            <path data-key="k5" d="M165.66,133.34h31.08V91.22H165.66ZM129.9,39.26v71.52h-7.32v22.56H73.17V39.26Zm33.48,94.08H124.86V113.06h7.32V91.22h31.2Zm-30-127.08H199V30h-7.08v9.24h4.8V89H132.18V39.26h23.16V30H132.18V6.26Z" transform="translate(1)" style="fill: #fea304"/>
      </a>
      <a href="#">
            <path data-key="k6" d="M241.74,91.22h33.72l16.2,16.2v25.92H241.74Zm29.88-85h1.32V30H249.78v9.24h25.68V89H208.38V39.26h4.8V30H206V6.26ZM208.38,133.34h31.08V91.22H208.38Zm69.36-94.08h76.8v94.08H293.82V106.46L277.74,90.38Z" transform="translate(1)" style="fill: #ffd100"/>
      </a>
      <a href="#">
            <path data-key="k7" d="M510.87,205.62h30.84v70.8h-5.64v9.36h5.64v23.76H492V285.78h7.44v-9.36h-10V227.58h-.6ZM419.79,176h41.64v49.44H419.79Zm67.56,100.44H461.07v9.36h26.4v23.76H419.55V285.78h5v-9.36h-4.8V227.58h67.56Zm118.44,0V176H544V276.42ZM488,225.44H463.59V176h78.12v27.48h-31.8Z" transform="translate(1)" style="fill: #eb400d"/>
      </a>
      <a href="#">
            <path data-key="k8" d="M607,276.86V176.42H545.2V276.86ZM462.66,207.14H421V176.42h41.64Zm26.52,18.72H464.82V176.42h78.12V203.9h-31.8Zm-68.16,0h41.64V209.42H421Zm91.08-19.8h30.84v70.8H537.3v9.36h5.64V310H493.26V286.22h7.44v-9.36h-10V228h-.6Zm-23.4,80.16V310H420.78V286.22h4.92v-9.36H421V228h67.56v48.84H462.3v9.36Z" transform="translate(1)" style="fill: #eb400d"/>
      </a>

      <path class="cls-2" d="M135.54,276.86V176.42H72.89V276.86Zm80.4-100.44v49.44H191.46l-22-22H137.7V176.42Zm1.92,33h41.88v16.44H217.86Zm-80.16-3.36h31l22,22h-.72v48.84h-10v9.36h7.56V310H137.7V286.22h5.64v-9.36H137.7Zm121.8-10.44h-5.64v-19.2h-36v30.72H259.5ZM196.38,310h-4.32V286.22h26.28v-9.36H192.18V228h67.56v48.84h-4.8v9.36h4.92V310Z"/>
</svg>