<svg class="plan_color" id="sectionD10" data-section="d" xmlns="http://www.w3.org/2000/svg" width="696.33" height="333.88" viewBox="0 0 696.33 333.88">
  
      <path d="M55,109.79H44.39v46.55H8.11V65h3V55.9h-3V32.79H55v23.1H46.72V65H55Zm67.2,55.65V193.9H62.12v9.8h-54V165.43H46.49V111.89H73.2v53.55ZM75.3,130.09h40.06v26.25H75.3ZM8.11,205.8V296h54V205.8Zm107.25-93.74H75.3v15.82h40.06ZM110.65,55.9V65h4.67v44.8H57.22V65H75.07V55.9H57.22V32.79h58.1v23.1Z" transform="translate(1)" style="fill: #ffd100"/>
    
      <path d="M501.69,296h-5.48v9h5.48v23.1H460.51V306.24h.12V296h-9.57V248.49h5l21.35-21.35h24.27Zm51.8,0H503.91V225h-25.2V198.33h74.78ZM391.91,328.05H389.7V305h7v-9H392V248.49h57V296H432.2v9h23.91v23.1Zm35.7-129.72H392v29.78h35.58ZM392,230.3h35.58v16H392Zm63.11,16h-25.4v-48h46.78V225Z" transform="translate(1)" style="fill: #eb400d"/>
    
      <path d="M557.92,198.33H614.5v25.2h13.77V296H557.92Zm72.45,25.2h56V296h-6.88v8.89h6.7v23.19H621.26V304.84H643.9V296H630.36Zm51.33-37.8H653.81v35.7h27.88Zm-27.88-20.35h32.55v18.14H653.81ZM684.26,32.79h2.1v23.1H663.73V65h22.63v91.34H623.6V65h4.67V55.9h-7V32.79ZM616.71,165.43h35v56h-35Z" transform="translate(1)" style="fill: #fff1bc"/>
    
      <path d="M189.28,156.33h-30.8V114.92h18.2l12.6,12.72Zm-2-123.54h2.1v23.1h-22.5V65h8.52v47.83H126.63V65h4.67V55.9h-6.88V32.79Zm-30.91,82.13H126.63v41.41h29.75ZM239.79,65v72.68l-10.73-.47.47,19.13h-38V126.7l-14-13.88V65h30.22V55.9h-9.22V32.79h39.2v23.1h-3.38V65Z" transform="translate(1)" style="fill: #ffe986"/>
    
      <path d="M66.55,198.33V296h52.61V198.33ZM171.2,296h-4.55v32.08H124.42V305h6.65v-9h-9.68V248.49H171.2Zm26.36-97.64v47.95H121.38v-48Zm37.68,0H199.66V228h35.58Zm-35.58,32.43h35.58v15.52H199.66Zm-26.48,97.29h-2.1V305H195v-9H173.3V248.49h61.95V296h-4.67v9h7v23.1Z" transform="translate(1)" style="fill: #fea304"/>
    
      <path d="M441.73,156.33V130.9l-13.88-18.78L428.08,65h57v91.34Zm-34.65,0V114.92h20.3l12.25,16.68v24.73ZM405,114.92H375.23v41.41H405Zm30.91-82.13H438v23.1H415.36V65h10.5v47.83H375.23V65h4.67V55.9H375V32.79Z" transform="translate(1)" style="fill: #ffd100"/>
    
      <path d="M314.69,296V241.4h12.95v-43h53V296H368.35v9H380.6v23.1H314.92V305h9v-9Zm-37.91-97.64H246.56v40.83h30.21ZM246.56,296V241.4h66V296h-26v9h23.92v23.1H246.56V305H251v-9ZM279,198.33v40.83h46.55V198.33Z" transform="translate(1)" style="fill: #ff8019"/>
    
      <path d="M580.43,156.33H544.85V136.62H552v-21.7h28.46Zm31.85-41.41H582.53v41.41h29.75Zm.12-82.13h2.1v23.1h-6.88V65h4.67v47.83H552V65h20V55.9H549.52V32.79ZM489.56,65h60.31v69.53h-7.12v21.82h-53.2Z" transform="translate(1)" style="fill: #fea304"/>
    
</svg>
