<svg class="plan_color" id="sectionB" data-section="b" xmlns="http://www.w3.org/2000/svg" width="682.02" height="309.95" viewBox="0 0 682.02 309.95">
  
      <path d="M43.22,215v59.84H130.1V215Zm86.88-37.3H109.17v35H130.1ZM9.36,52.33v89.4H55V52.33ZM115.27,23.2V44.13h-6.21v8.2h4.1v52.59H56.89V52.33H76.77v-8.2H56.26V23.2Zm-2.1,83.72H83.08v34.5h30.08Zm-56.27,43h1.58v-8.2H56.89v-34.8H81.08v34.81H79.51v8.2h54.8V175.8h-27V213H56.89Zm-1.89,0v62.79H9.36V149.94Zm-41,73H33V223h1.89v32.29H33v17.56H14Z" transform="translate(1)" style="fill: #ffd100"/>
    
      <path d="M619.31,141.84V98.29h14.51V127h9.68v23H673v25.87H595.12V150h24.19Zm4.63,36V275h49V177.81Zm11.78-52.69V52.44h10.94v-8.2H630.25V23.31H673V44.24h-2.1v8.2H673v89.4H645.4V125.11Zm-18.3-9.89h-33v26.61h33Zm0-1.89h-33V98.27h33Zm-31.13-90h42.07V44.24h-7.47v8.2h12.94v44H584.39v-44h4.21v-8.2h-4.21V23.31Z" transform="translate(1)" style="fill: #fff1bc"/>
    
      <path d="M520.45,105h-2.21L501,122.38v19.46H476.6V124.9h-9.36V52.44h53.22Zm-3.37-81.72h59.11v21h-6.31v8.2h4.21v53.32H522.45V52.44H537.6v-8.2H517.08Zm57,83.72H546.64v34.81h27.45Zm-71.2,34.81V123.12L519.08,107h25.66v34.81Z" transform="translate(1)" style="fill: #ffd100"/>
    
      <path d="M294.9,52.33V102.6l-4.1.11L272.71,120.8v20.93H242.63V52.33Zm1.89,50.38V52.33h11.15v-8.2h-20.5V23.2H343.5V44.13h-3.26v8.2h3v50.38ZM317,104.6h26.29v37.13H317Zm-42.28,16.93,16.93-16.93H315v37.13H274.71Z" transform="translate(1)" style="fill: #ffd100"/>
    
      <path d="M278,274.88V179.8h34.18v31.66L325,224.19v50.69Zm36.18-64.26V179.8h32.08v43.54H326.88ZM382.3,179.8H348.23v43.54H382.3ZM327.3,304h-2V283.09h19.46v-8.2H326.88V225.34H382.3v49.54h-5.36v8.2h6.31V304Z" transform="translate(1)" style="fill: #ff8019"/>
    
      <path d="M523.29,304.12h-2V283.19h6.31V275h-4.21V222.4h44.17V275h-7.68v8.2h19.35v20.93ZM568.2,220.4H551.69V179.91h37V200Zm-18.38-40.49H523.39V220.4h26.42ZM569.46,275V221.87l21.14-21v-21h29.24V275Z" transform="translate(1)" style="fill: #eb400d"/>
    
      <path d="M193.2,121.54v20.19H152.92V104.6h23.35Zm-69.63-69.2h4.1v-8.2h-6.21V23.2h59V44.13H160v8.2h15.15v50.38H123.57Zm0,89.4h27.35V104.6H123.57ZM195.2,120.8l-18.09-18.09V52.33h61.42v89.4H195.2Z" transform="translate(1)" style="fill: #ffe986"/>
    
      <path d="M444,222.29h21V179.8h48.59v95.08H444Zm-2.21-42.49H463v40.5H420.9V179.8Zm-22.93,0H392.61v40.5H418.9ZM393.45,304h-2V283.09h4.21v-8.2H392.4v-52.6H442v52.59H428v8.2H447.3V304Z" transform="translate(1)" style="fill: #fc591b"/>
    
      <path d="M140.51,215v59.84h87.08V215Zm35.34-35.23V213H227.6V179.8Zm53.64,0v95.08H274V179.8ZM173.85,213H140.51V179.8h33.34Zm16,91V283.09h38.7V304Z" transform="translate(1)" style="fill: #fea304"/>
    
</svg>
