<?xml version="1.0" encoding="UTF-8"?>
<svg width="14px" height="13px" viewBox="0 0 14 13" version="1.1" xmlns="http://www.w3.org/2000/svg" xmlns:xlink="http://www.w3.org/1999/xlink">
    <!-- Generator: Sketch 50 (54983) - http://www.bohemiancoding.com/sketch -->
    <title>Shape Copy 2</title>
    <desc>Created with Sketch.</desc>
    <defs></defs>
    <g id="Plans" stroke="none" stroke-width="1" fill="none" fill-rule="evenodd">
        <g id="MS-Plans-(1920)-Filter-Copy" transform="translate(-193.000000, -226.000000)" fill="#AAACB0" fill-rule="nonzero">
            <g id="Group-20-Copy" transform="translate(193.000000, 191.000000)">
                <path d="M6.92554901,47.7232156 C7.28393803,47.3539266 7.28393803,46.7551857 6.92554901,46.3859528 L3.14301392,42.4900969 L13.0818529,42.4900969 C13.5889804,42.4900969 14,42.0666575 14,41.5445128 C14,41.0222558 13.5889804,40.5989286 13.0818529,40.5989286 L3.13881873,40.5989286 L7.00765486,36.6141875 C7.36604387,36.2449546 7.36604387,35.6461576 7.00765486,35.2769247 C6.64904791,34.9076918 6.06782352,34.9076918 5.70932554,35.2769247 L0.44577971,40.6981951 C0.418592705,40.7261962 0.394020883,40.7559929 0.37108355,40.786463 C0.146286791,40.9586221 0,41.233695 0,41.5444566 C0,41.8456228 0.137242617,42.1134008 0.350325536,42.2865138 C0.354956589,42.2916763 0.359042812,42.296951 0.363891797,42.3019452 L5.62743763,47.7231034 C5.98566319,48.0922802 6.56710551,48.0922802 6.92554901,47.7232156 Z" id="Shape-Copy-2"></path>
            </g>
        </g>
    </g>
</svg>