<?xml version="1.0" encoding="UTF-8"?>
<svg width="128px" height="12px" viewBox="0 0 128 12" version="1.1" xmlns="http://www.w3.org/2000/svg" xmlns:xlink="http://www.w3.org/1999/xlink">
    <!-- Generator: Sketch 50 (54983) - http://www.bohemiancoding.com/sketch -->
    <title>by_facility</title>
    <desc>Created with Sketch.</desc>
    <defs></defs>
    <g id="Symbols" stroke="none" stroke-width="1" fill="none" fill-rule="evenodd">
        <g id="Footer-1280" transform="translate(-1050.000000, -104.000000)" fill="#94979D" fill-rule="nonzero">
            <g id="footer">
                <g id="Group-15" transform="translate(1050.333333, 58.333333)">
                    <g id="by_facility" transform="translate(0.000000, 46.000000)">
                        <path d="M1,8 L1,9.2 L0,9.2 L0,0.4 L1,0.4 L1,4.2 C1.5,3.5 2.2,2.8 3.4,2.8 C4.9,2.8 6.4,4 6.4,6 C6.4,8 4.9,9.2 3.4,9.2 C2.2,9.3 1.4,8.7 1,8 Z M5.3,6.1 C5.3,4.6 4.3,3.7 3.1,3.7 C1.9,3.7 0.9,4.7 0.9,6.1 C0.9,7.5 2,8.5 3.1,8.5 C4.4,8.5 5.3,7.6 5.3,6.1 Z" id="Shape"></path>
                        <path d="M7.3,10.8 L7.6,10.1 C7.9,10.3 8.2,10.3 8.6,10.3 C9.2,10.3 9.5,10 9.9,9.1 L7.1,3 L8.1,3 L10.4,8.2 L12.4,3 L13.4,3 L10.8,9.4 C10.3,10.7 9.7,11.2 8.7,11.2 C8.1,11.2 7.8,11 7.3,10.8 Z" id="Shape"></path>
                        <polygon id="Shape" points="22 0.8 28.2 0.8 28.2 2.1 23.4 2.1 23.4 4.4 27.6 4.4 27.6 5.7 23.4 5.7 23.4 9.1 22 9.1"></polygon>
                        <path d="M39.1,0.7 L40.5,0.7 L44.2,9.2 L42.6,9.2 L41.7,7.2 L37.7,7.2 L36.8,9.2 L35.3,9.2 L39.1,0.7 Z M41.2,5.9 L39.7,2.5 L38.3,5.9 L41.2,5.9 Z" id="Shape"></path>
                        <path d="M51.9,5 C51.9,2.6 53.7,0.7 56.2,0.7 C57.7,0.7 58.7,1.2 59.5,2 L58.6,3.1 C57.9,2.5 57.2,2.1 56.2,2.1 C54.6,2.1 53.4,3.4 53.4,5.1 C53.4,6.7 54.6,8.1 56.2,8.1 C57.2,8.1 57.9,7.7 58.6,7 L59.5,8 C58.6,8.9 57.7,9.5 56.1,9.5 C53.8,9.3 51.9,7.4 51.9,5 Z" id="Shape"></path>
                        <polygon id="Shape" points="68.5 0.8 70 0.8 70 9.2 68.5 9.2"></polygon>
                        <polygon id="Shape" points="79.4 0.8 80.9 0.8 80.9 7.9 85.3 7.9 85.3 9.2 79.4 9.2"></polygon>
                        <polygon id="Shape" points="94.1 0.8 95.6 0.8 95.6 9.2 94.1 9.2"></polygon>
                        <polygon id="Shape" points="107.1 2.2 104.4 2.2 104.4 0.8 111.2 0.8 111.2 2.2 108.5 2.2 108.5 9.2 107 9.2 107 2.2"></polygon>
                        <polygon id="Shape" points="122.5 5.9 119.2 0.8 120.9 0.8 123.3 4.5 125.7 0.8 127.4 0.8 124.1 5.8 124.1 9.1 122.6 9.1 122.6 5.9"></polygon>
                    </g>
                </g>
            </g>
        </g>
    </g>
</svg>