<?xml version="1.0" encoding="UTF-8"?>
<svg width="25px" height="24px" viewBox="0 0 25 24" version="1.1" xmlns="http://www.w3.org/2000/svg" xmlns:xlink="http://www.w3.org/1999/xlink">
    <!-- Generator: Sketch 50 (54983) - http://www.bohemiancoding.com/sketch -->
    <title>Shape</title>
    <desc>Created with Sketch.</desc>
    <defs></defs>
    <g id="Concept" stroke="none" stroke-width="1" fill="none" fill-rule="evenodd" opacity="0.100000001">
        <g id="MS-Concept-(1920)" transform="translate(-206.000000, -7235.000000)" fill="#000000" fill-rule="nonzero">
            <g id="Group-25" transform="translate(193.000000, 6477.000000)">
                <g id="foot">
                    <g id="block-5">
                        <g id="button" transform="translate(12.000000, 569.000000)">
                            <g id="plus" transform="translate(1.000000, 189.000000)">
                                <path d="M23.8093036,8.19350769 C23.6597284,8.04409405 23.4570624,7.96021554 23.2455883,7.96021554 L16.0846428,7.96118524 L16.0856933,0.797169025 C16.0856933,0.585694992 16.0018148,0.382948202 15.8523204,0.233372949 C15.7027451,0.0838785046 15.4999983,0 15.2885243,0 L8.8087078,0.000969693695 C8.36870929,0.00113130931 8.01202362,0.357736166 8.01194282,0.79773468 L8.01064989,7.96231655 L0.848977103,7.96344786 C0.408897781,7.96344786 0.0522121171,8.32021433 0.0521313093,8.76021284 L0.051,15.2427768 C0.051,15.4543317 0.134878505,15.6569976 0.284453757,15.8065729 C0.433948202,15.9560673 0.636694992,16.0399458 0.848169025,16.0399458 L8.00943777,16.0389761 L8.00830646,23.2028307 C8.00830646,23.4143048 8.09234658,23.6170516 8.24176022,23.7666268 C8.39133547,23.9161213 8.59408226,24.0001614 8.8055563,23.9999998 L15.285292,23.9987068 C15.7252905,23.9987068 16.0819762,23.6419404 16.082057,23.2019419 L16.0831883,16.0376832 L23.2451035,16.0363903 C23.685102,16.0363903 24.0417877,15.6796238 24.0418685,15.2396253 L24.0428382,8.75722295 C24.0426766,8.54574892 23.9587981,8.34308294 23.8093036,8.19350769 Z" id="Shape"></path>
                            </g>
                        </g>
                    </g>
                </g>
            </g>
        </g>
    </g>
</svg>