<?xml version="1.0" encoding="UTF-8"?>
<svg width="18px" height="22px" viewBox="0 0 18 22" version="1.1" xmlns="http://www.w3.org/2000/svg" xmlns:xlink="http://www.w3.org/1999/xlink">
    <!-- Generator: Sketch 50 (54983) - http://www.bohemiancoding.com/sketch -->
    <title>Shape</title>
    <desc>Created with Sketch.</desc>
    <defs></defs>
    <g id="Plans" stroke="none" stroke-width="1" fill="none" fill-rule="evenodd">
        <g id="MS-Plans-(1920)-Filter-Copy" transform="translate(-1037.000000, -270.000000)" fill="#FCC334" fill-rule="nonzero">
            <g id="Group-18" transform="translate(171.000000, -50.000000)">
                <g id="block-3">
                    <g id="button" transform="translate(16.000000, 291.000000)">
                        <g id="Group-2" transform="translate(570.000000, 0.000000)">
                            <g id="Group-12" transform="translate(280.000000, 0.000000)">
                                <path d="M8.47202869,29.0055902 C4.10358607,29.1588689 0.474487705,32.5670656 0.0552254098,36.9174754 C-0.0304303279,37.7875574 0.0191598361,38.6305902 0.172438525,39.4375574 C0.172438525,39.4375574 0.185963115,39.5322295 0.231045082,39.7125574 C0.366290984,40.3166557 0.569159836,40.9027213 0.821618852,41.4527213 C1.70071721,43.5355082 3.73391393,47.0203443 8.29620902,50.8117377 C8.57571721,51.0461639 8.98596311,51.0461639 9.26997951,50.8117377 C13.8322746,47.0248525 15.8654713,43.5400164 16.7490779,41.4482131 C17.0060451,40.8982131 17.2044057,40.3166557 17.3396516,39.7080492 C17.3802254,39.5322295 17.3982582,39.4330492 17.3982582,39.4330492 C17.5019467,38.8920656 17.5560451,38.3375574 17.5560451,37.7695246 C17.5560451,32.8195246 13.4580943,28.8297705 8.47202869,29.0055902 Z M8.78309426,42.133459 C6.42981557,42.133459 4.52284836,40.2264918 4.52284836,37.8732131 C4.52284836,35.5199344 6.42981557,33.6129672 8.78309426,33.6129672 C11.136373,33.6129672 13.0433402,35.5199344 13.0433402,37.8732131 C13.0433402,40.2264918 11.136373,42.133459 8.78309426,42.133459 Z" id="Shape"></path>
                            </g>
                        </g>
                    </g>
                </g>
            </g>
        </g>
    </g>
</svg>