<?xml version="1.0" encoding="UTF-8"?>
<svg width="20px" height="16px" viewBox="0 0 20 16" version="1.1" xmlns="http://www.w3.org/2000/svg" xmlns:xlink="http://www.w3.org/1999/xlink">
    <!-- Generator: Sketch 50 (54983) - http://www.bohemiancoding.com/sketch -->
    <title>Combined Shape</title>
    <desc>Created with Sketch.</desc>
    <defs></defs>
    <g id="Plans" stroke="none" stroke-width="1" fill="none" fill-rule="evenodd">
        <g id="MS-Plans-(1920)-Filter-Copy" transform="translate(-759.000000, -273.000000)" fill="#FCC334">
            <g id="Group-18" transform="translate(171.000000, -50.000000)">
                <g id="block-3">
                    <g id="button" transform="translate(16.000000, 291.000000)">
                        <g id="Group-2" transform="translate(570.000000, 0.000000)">
                            <g id="Group-13" transform="translate(2.000000, 0.000000)">
                                <path d="M16.5951532,45.6 C16.1009495,46.9982308 14.7674626,48 13.2,48 C11.6325374,48 10.2990505,46.9982308 9.80484685,45.6 L0,45.6 L0,43.2 L9.80484685,43.2 C10.2990505,41.8017692 11.6325374,40.8 13.2,40.8 C14.7674626,40.8 16.1009495,41.8017692 16.5951532,43.2 L19.2,43.2 L19.2,45.6 L16.5951532,45.6 Z M2.60484685,34.4 C3.09905054,33.0017692 4.43253741,32 6,32 C7.56746259,32 8.90094946,33.0017692 9.39515315,34.4 L19.2,34.4 L19.2,36.8 L9.39515315,36.8 C8.90094946,38.1982308 7.56746259,39.2 6,39.2 C4.43253741,39.2 3.09905054,38.1982308 2.60484685,36.8 L0,36.8 L0,34.4 L2.60484685,34.4 Z" id="Combined-Shape"></path>
                            </g>
                        </g>
                    </g>
                </g>
            </g>
        </g>
    </g>
</svg>