<?xml version="1.0" encoding="UTF-8"?>
<svg width="22px" height="26px" viewBox="0 0 22 26" version="1.1" xmlns="http://www.w3.org/2000/svg" xmlns:xlink="http://www.w3.org/1999/xlink">
    <!-- Generator: Sketch 50 (54983) - http://www.bohemiancoding.com/sketch -->
    <title>Shape</title>
    <desc>Created with Sketch.</desc>
    <defs></defs>
    <g id="Concept" stroke="none" stroke-width="1" fill="none" fill-rule="evenodd" opacity="0.100000001">
        <g id="MS-Concept-(1920)" transform="translate(-624.000000, -7156.000000)" fill="#000000" fill-rule="nonzero">
            <g id="Group-25" transform="translate(193.000000, 6477.000000)">
                <g id="foot">
                    <g id="block-5">
                        <g id="button" transform="translate(12.000000, 569.000000)">
                            <g id="front-bus" transform="translate(419.000000, 110.000000)">
                                <path d="M0.0134020619,19.1381443 C0.0134020619,20.3684536 0.560206186,21.4620619 1.38041237,22.145567 L1.38041237,24.6061856 C1.38041237,25.4263918 1.92721649,25.9731959 2.74742268,25.9731959 L4.11443299,25.9731959 C4.93463918,25.9731959 5.4814433,25.4263918 5.4814433,24.6061856 L5.4814433,23.2391753 L16.4175258,23.2391753 L16.4175258,24.6061856 C16.4175258,25.4263918 16.9643299,25.9731959 17.7845361,25.9731959 L19.1515464,25.9731959 C19.9717526,25.9731959 20.5185567,25.4263918 20.5185567,24.6061856 L20.5185567,22.145567 C21.3387629,21.4620619 21.885567,20.3685072 21.885567,19.1381443 L21.885567,5.46804124 C21.885567,0.683505155 16.9643299,0 10.9494845,0 C4.93463918,0 0.0134020619,0.683505155 0.0134020619,5.46804124 L0.0134020619,19.1381443 Z M4.79793814,20.5051546 C3.7043299,20.5051546 2.74742268,19.5482474 2.74742268,18.4546392 C2.74742268,17.3610309 3.7043299,16.4041237 4.79793814,16.4041237 C5.89154639,16.4041237 6.84845361,17.3610309 6.84845361,18.4546392 C6.84845361,19.5482474 5.89154639,20.5051546 4.79793814,20.5051546 Z M17.1010309,20.5051546 C16.0074227,20.5051546 15.0505155,19.5482474 15.0505155,18.4546392 C15.0505155,17.3610309 16.0074227,16.4041237 17.1010309,16.4041237 C18.1946392,16.4041237 19.1515464,17.3610309 19.1515464,18.4546392 C19.1515464,19.5482474 18.1946392,20.5051546 17.1010309,20.5051546 Z M19.1515464,12.3030928 L2.74742268,12.3030928 L2.74742268,5.46804124 L19.1515464,5.46804124 L19.1515464,12.3030928 Z" id="Shape"></path>
                            </g>
                        </g>
                    </g>
                </g>
            </g>
        </g>
    </g>
</svg>