<?xml version="1.0" encoding="UTF-8"?>
<svg width="24px" height="24px" viewBox="0 0 24 24" version="1.1" xmlns="http://www.w3.org/2000/svg" xmlns:xlink="http://www.w3.org/1999/xlink">
    <!-- Generator: Sketch 50 (54983) - http://www.bohemiancoding.com/sketch -->
    <title>Shape</title>
    <desc>Created with Sketch.</desc>
    <defs></defs>
    <g id="Concept" stroke="none" stroke-width="1" fill="none" fill-rule="evenodd" opacity="0.100000001">
        <g id="MS-Concept-(1920)" transform="translate(-206.000000, -7315.000000)" fill="#030104" fill-rule="nonzero">
            <g id="Group-25" transform="translate(193.000000, 6477.000000)">
                <g id="foot">
                    <g id="block-5">
                        <g id="button" transform="translate(12.000000, 569.000000)">
                            <g id="shopping-trolley" transform="translate(1.000000, 269.000000)">
                                <path d="M3.99973333,21.3333333 C3.99973333,22.8061333 5.1936,24 6.66666667,24 C8.13973333,24 9.33306667,22.8061333 9.33306667,21.3333333 C9.33306667,19.8605333 8.13973333,18.6666667 6.66666667,18.6666667 C5.1936,18.6666667 3.99973333,19.8605333 3.99973333,21.3333333 Z M17.3330667,21.3333333 C17.3330667,22.8061333 18.5269333,24 20,24 C21.4730667,24 22.6664,22.8061333 22.6664,21.3333333 C22.6664,19.8605333 21.4730667,18.6666667 20,18.6666667 C18.5269333,18.6666667 17.3330667,19.8605333 17.3330667,21.3333333 Z M8.72933333,15.0298667 L23.4872,10.8133333 C23.7693333,10.7325333 24,10.4266667 24,10.1333333 L24,2.8 L5.2,2.8 L5.2,0.533333333 C5.2,0.24 4.96026667,0 4.66666667,0 L0.533333333,0 C0.239733333,0 0,0.24 0,0.533333333 L0,2.66666667 L2.59146667,2.66666667 L5.2152,14.7424 L5.46666667,16 L5.46666667,18 C5.46666667,18.2933333 5.7064,18.5333333 6,18.5333333 L6.66666667,18.5333333 L20,18.5333333 L23.4666667,18.5333333 C23.7602667,18.5333333 24,18.2933333 24,18 L24,16 L9.00293333,16 C7.47013333,16 7.43893333,15.3992 8.72933333,15.0298667 Z" id="Shape"></path>
                            </g>
                        </g>
                    </g>
                </g>
            </g>
        </g>
    </g>
</svg>